<svg width="18" height="19" viewBox="0 0 18 19" fill="none" xmlns="http://www.w3.org/2000/svg">
<path d="M9 0.5C4.02966 0.5 0 4.52966 0 9.5C0 14.4703 4.02966 18.5 9 18.5C13.9703 18.5 18 14.4703 18 9.5C18 4.52966 13.9703 0.5 9 0.5ZM13.1538 10.8846H9C8.81639 10.8846 8.6403 10.8117 8.51046 10.6818C8.38063 10.552 8.30769 10.3759 8.30769 10.1923V3.96154C8.30769 3.77793 8.38063 3.60184 8.51046 3.472C8.6403 3.34217 8.81639 3.26923 9 3.26923C9.18361 3.26923 9.3597 3.34217 9.48954 3.472C9.61937 3.60184 9.69231 3.77793 9.69231 3.96154V9.5H13.1538C13.3375 9.5 13.5135 9.57294 13.6434 9.70277C13.7732 9.8326 13.8462 10.0087 13.8462 10.1923C13.8462 10.3759 13.7732 10.552 13.6434 10.6818C13.5135 10.8117 13.3375 10.8846 13.1538 10.8846Z" fill="#FFA877"/>
</svg>
