<svg width="16" height="20" viewBox="0 0 16 20" fill="none" xmlns="http://www.w3.org/2000/svg">
<path fill-rule="evenodd" clip-rule="evenodd" d="M8 0C3.582 0 0 4.00309 0 8.50019C0 12.9623 2.553 17.8124 6.537 19.6744C6.99492 19.8889 7.49437 20 8 20C8.50563 20 9.00508 19.8889 9.463 19.6744C13.447 17.8124 16 12.9623 16 8.50019C16 4.00309 12.418 0 8 0ZM8 10.0002C8.53043 10.0002 9.03914 9.7895 9.41421 9.41442C9.78929 9.03934 10 8.53062 10 8.00018C10 7.46973 9.78929 6.96101 9.41421 6.58593C9.03914 6.21085 8.53043 6.00013 8 6.00013C7.46957 6.00013 6.96086 6.21085 6.58579 6.58593C6.21071 6.96101 6 7.46973 6 8.00018C6 8.53062 6.21071 9.03934 6.58579 9.41442C6.96086 9.7895 7.46957 10.0002 8 10.0002Z" fill="#FFA877"/>
</svg>
