<svg width="18" height="22" viewBox="0 0 18 22" fill="none" xmlns="http://www.w3.org/2000/svg">
<path fill-rule="evenodd" clip-rule="evenodd" d="M10.5 3.44041C10.5 3.80502 10.342 4.1547 10.0607 4.41253C9.77936 4.67035 9.39783 4.81519 9 4.81519C8.60218 4.81519 8.22064 4.67035 7.93934 4.41253C7.65804 4.1547 7.5 3.80502 7.5 3.44041C7.5 3.07579 7.65804 2.72611 7.93934 2.46829C8.22064 2.21047 8.60218 2.06562 9 2.06562C9.39783 2.06562 9.77936 2.21047 10.0607 2.46829C10.342 2.72611 10.5 3.07579 10.5 3.44041ZM12.675 2.75302C12.5029 1.97606 12.043 1.27754 11.3732 0.775815C10.7034 0.274085 9.86502 0 9 0C8.13498 0 7.29657 0.274085 6.62681 0.775815C5.95705 1.27754 5.49714 1.97606 5.325 2.75302H1.5C1.10218 2.75302 0.720644 2.89786 0.43934 3.15568C0.158035 3.4135 0 3.76318 0 4.1278V20.6252C0 20.9898 0.158035 21.3395 0.43934 21.5973C0.720644 21.8552 1.10218 22 1.5 22H16.5C16.8978 22 17.2794 21.8552 17.5607 21.5973C17.842 21.3395 18 20.9898 18 20.6252V4.1278C18 3.76318 17.842 3.4135 17.5607 3.15568C17.2794 2.89786 16.8978 2.75302 16.5 2.75302H12.675ZM9 6.87737H5.25V4.81519H2.25V19.9378H15.75V4.81519H12.75V6.87737H9ZM4.5 10.658C4.5 10.3846 4.61853 10.1223 4.8295 9.92894C5.04048 9.73557 5.32663 9.62694 5.625 9.62694H12.375C12.6734 9.62694 12.9595 9.73557 13.1705 9.92894C13.3815 10.1223 13.5 10.3846 13.5 10.658C13.5 10.9315 13.3815 11.1937 13.1705 11.3871C12.9595 11.5805 12.6734 11.6891 12.375 11.6891H5.625C5.32663 11.6891 5.04048 11.5805 4.8295 11.3871C4.61853 11.1937 4.5 10.9315 4.5 10.658ZM5.625 13.0639C5.32663 13.0639 5.04048 13.1725 4.8295 13.3659C4.61853 13.5593 4.5 13.8215 4.5 14.095C4.5 14.3685 4.61853 14.6307 4.8295 14.8241C5.04048 15.0174 5.32663 15.1261 5.625 15.1261H12.375C12.6734 15.1261 12.9595 15.0174 13.1705 14.8241C13.3815 14.6307 13.5 14.3685 13.5 14.095C13.5 13.8215 13.3815 13.5593 13.1705 13.3659C12.9595 13.1725 12.6734 13.0639 12.375 13.0639H5.625Z" fill="#FFA877"/>
</svg>
