<svg width="22" height="21" viewBox="0 0 22 21" fill="none" xmlns="http://www.w3.org/2000/svg">
<path d="M11.6988 1.95308L13.9056 6.59874C13.9558 6.71666 14.0347 6.81879 14.1346 6.89497C14.2344 6.97115 14.3516 7.01871 14.4746 7.03292L19.3461 7.78548C19.4871 7.80439 19.6201 7.86475 19.7295 7.95952C19.8389 8.05429 19.9201 8.17956 19.9638 8.32069C20.0075 8.46183 20.0117 8.613 19.9761 8.75656C19.9404 8.90011 19.8663 9.03013 19.7625 9.13142L16.2511 12.764C16.1615 12.8513 16.0942 12.9606 16.0554 13.0819C16.0167 13.2033 16.0076 13.3328 16.029 13.4587L16.8756 18.5675C16.9002 18.7143 16.8847 18.8653 16.8309 19.0034C16.7772 19.1414 16.6874 19.261 16.5717 19.3485C16.456 19.4359 16.3191 19.4878 16.1765 19.4981C16.034 19.5084 15.8915 19.4768 15.7653 19.4069L11.3796 16.99C11.2673 16.9325 11.1439 16.9026 11.0188 16.9026C10.8937 16.9026 10.7702 16.9325 10.6579 16.99L6.27219 19.4069C6.14602 19.4768 6.00355 19.5084 5.861 19.4981C5.71845 19.4878 5.58154 19.4359 5.46585 19.3485C5.35016 19.261 5.26034 19.1414 5.2066 19.0034C5.15287 18.8653 5.13737 18.7143 5.16189 18.5675L6.0085 13.4008C6.02995 13.2749 6.02088 13.1454 5.98209 13.024C5.94331 12.9027 5.87605 12.7934 5.78643 12.7061L2.23345 9.13142C2.12833 9.02736 2.05441 8.89375 2.02063 8.74677C1.98686 8.59979 1.99468 8.44575 2.04315 8.30331C2.09162 8.16087 2.17866 8.03614 2.29372 7.94423C2.40879 7.85232 2.54694 7.79718 2.69145 7.78548L7.56293 7.03292C7.68589 7.01871 7.80314 6.97115 7.90298 6.89497C8.00282 6.81879 8.08177 6.71666 8.13196 6.59874L10.3387 1.95308C10.3988 1.81778 10.4948 1.70322 10.6153 1.62294C10.7358 1.54266 10.8758 1.5 11.0188 1.5C11.1618 1.5 11.3018 1.54266 11.4223 1.62294C11.5428 1.70322 11.6387 1.81778 11.6988 1.95308Z" stroke="#FFA877" stroke-width="3" stroke-linecap="round" stroke-linejoin="round"/>
</svg>
