<svg width="100" height="100" viewBox="0 0 100 100" fill="none" xmlns="http://www.w3.org/2000/svg">
<path d="M61.6667 33.3333L66.6667 38.3333L38.3333 66.6666L33.3333 61.6666L61.6667 33.3333ZM16.6667 16.6666H83.3333C87.9583 16.6666 91.6667 20.375 91.6667 25V41.6666C89.4565 41.6666 87.3369 42.5446 85.7741 44.1074C84.2113 45.6702 83.3333 47.7898 83.3333 50C83.3333 52.2101 84.2113 54.3297 85.7741 55.8925C87.3369 57.4553 89.4565 58.3333 91.6667 58.3333V75C91.6667 79.625 87.9583 83.3333 83.3333 83.3333H16.6667C14.4565 83.3333 12.3369 82.4553 10.7741 80.8925C9.21131 79.3297 8.33334 77.2101 8.33334 75V58.3333C12.9583 58.3333 16.6667 54.625 16.6667 50C16.6667 47.7898 15.7887 45.6702 14.2259 44.1074C12.6631 42.5446 10.5435 41.6666 8.33334 41.6666V25C8.33334 22.7898 9.21131 20.6702 10.7741 19.1074C12.3369 17.5446 14.4565 16.6666 16.6667 16.6666ZM16.6667 25V35.5833C19.1987 37.0433 21.3015 39.1444 22.7636 41.6752C24.2256 44.206 24.9954 47.0772 24.9954 50C24.9954 52.9227 24.2256 55.794 22.7636 58.3247C21.3015 60.8555 19.1987 62.9566 16.6667 64.4166V75H83.3333V64.4166C80.8013 62.9566 78.6985 60.8555 77.2364 58.3247C75.7744 55.794 75.0046 52.9227 75.0046 50C75.0046 47.0772 75.7744 44.206 77.2364 41.6752C78.6985 39.1444 80.8013 37.0433 83.3333 35.5833V25H16.6667ZM39.5833 33.3333C43.0417 33.3333 45.8333 36.125 45.8333 39.5833C45.8333 43.0416 43.0417 45.8333 39.5833 45.8333C36.125 45.8333 33.3333 43.0416 33.3333 39.5833C33.3333 36.125 36.125 33.3333 39.5833 33.3333ZM60.4167 54.1666C63.875 54.1666 66.6667 56.9583 66.6667 60.4166C66.6667 63.875 63.875 66.6666 60.4167 66.6666C56.9583 66.6666 54.1667 63.875 54.1667 60.4166C54.1667 56.9583 56.9583 54.1666 60.4167 54.1666Z" fill="black"/>
</svg>
