<svg width="52" height="69" viewBox="0 0 52 69" fill="none" xmlns="http://www.w3.org/2000/svg">
<path d="M26.2343 59.3178C25.6142 58.7555 24.8003 58.001 23.8504 57.0821C21.6145 54.919 18.6378 51.8573 15.6667 48.258C12.6909 44.6531 9.75333 40.5482 7.56724 36.2998C5.37358 32.0366 4 27.7509 4 23.75C4 11.6531 14.0436 2 26.2487 2C38.4538 2 48.4974 11.6531 48.4974 23.75C48.4974 27.6177 47.1294 31.8374 44.9322 36.085C42.7443 40.3143 39.8041 44.4379 36.8254 48.077C33.8517 51.71 30.8724 54.8206 28.6344 57.0241C27.6766 57.9671 26.8569 58.7418 26.2343 59.3178Z" stroke="#FFA877" stroke-width="4"/>
<path d="M21.4041 29.01L25.1774 24.765L15.8174 14.25C14.8186 15.377 14.2577 16.9035 14.2577 18.495C14.2577 20.0865 14.8186 21.613 15.8174 22.74L21.4041 29.01ZM30.4441 26.295C32.4841 27.36 35.3508 26.61 37.4708 24.225C40.0174 21.36 40.5108 17.25 38.5508 15.045C36.6041 12.855 32.9508 13.395 30.3908 16.26C28.2708 18.645 27.6041 21.87 28.5508 24.165L15.5374 38.805L17.4174 40.92L26.6041 30.615L35.7774 40.935L37.6574 38.82L28.4841 28.5L30.4441 26.295Z" fill="#FFF177"/>
<path d="M5.60416 52C-14.8959 73 66.1041 71.5 47.6041 52M11.6041 52C9.10411 59.5 42.6041 60 40.6041 52" stroke="#FFF177" stroke-width="3"/>
</svg>
